<?xml version="1.0" encoding="utf-8"?>
<!-- Generator: Adobe Illustrator 28.2.0, SVG Export Plug-In . SVG Version: 6.00 Build 0)  -->
<svg version="1.1" id="Calque_1" xmlns="http://www.w3.org/2000/svg" xmlns:xlink="http://www.w3.org/1999/xlink" x="0px" y="0px"
	 viewBox="0 0 595.28 184.87" style="enable-background:new 0 0 595.28 184.87;" xml:space="preserve">
<style type="text/css">
	.st0{fill:#010202;}
	.st1{fill:#69ACDF;}
	.st2{fill:url(#SVGID_1_);}
	.st3{fill:url(#SVGID_00000168117214652061078230000000509238046532901310_);}
	.st4{fill:url(#SVGID_00000086650429861916367060000012040720428489225905_);}
	.st5{fill:url(#SVGID_00000030450078922853435230000005086664485884182686_);}
	.st6{fill:url(#SVGID_00000031888560984735521200000009855875863570514091_);}
	.st7{fill:url(#SVGID_00000081644909590035719670000012586377749685117621_);}
</style>
<g>
	<g>
		<path class="st0" d="M221.41,73.72c0-11.2,6.84-18.56,21.05-18.56h15.86c1.97,0,3.21,1.35,3.21,3.32v1.87
			c0,1.97-1.24,3.32-3.21,3.32h-15.76c-8.81,0-11.41,4.04-11.41,10.68v11.92h24.06c1.97,0,3.21,1.24,3.21,3.21v1.87
			c0,1.97-1.24,3.32-3.21,3.32h-24.06v13.79c0,6.64,2.59,10.68,11.41,10.68h16.18c1.97,0,3.21,1.24,3.21,3.21v1.97
			c0,1.97-1.24,3.21-3.21,3.21h-16.28c-14.1,0-21.05-7.36-21.05-18.46V73.72z"/>
		<path class="st0" d="M276.77,81.29l-5.29-0.41c-2.18-0.21-3.32-1.04-3.32-3.01v-1.04c0-1.97,1.24-2.7,3.21-2.7h5.39v-6.95
			c0-10.06,6.64-16.28,17-16.28c2.49,0,4.56,0.31,6.12,0.62c2.18,0.41,2.8,1.87,2.49,3.84l-0.31,1.66c-0.31,1.76-1.56,2.9-3.73,2.49
			c-1.04-0.1-2.38-0.31-4.25-0.31c-4.46,0-7.78,2.07-7.78,8.61v6.32h24.37v-5.18c0-11.51,7.05-18.04,20.12-18.04
			c4.25,0,8.29,0.62,11.3,1.35c1.97,0.52,3.21,1.76,2.7,3.84l-0.41,1.97c-0.41,1.87-1.87,2.7-3.84,2.28
			c-2.18-0.52-5.81-1.14-9.44-1.14c-7.36,0-10.89,2.9-10.89,10.37v4.56h8.5c1.97,0,3.32,1.04,3.32,3.01v1.24
			c0,1.97-1.35,2.9-3.32,2.9h-8.5v43.03c0,1.97-1.24,3.21-3.21,3.21H314c-1.97,0-3.32-1.24-3.32-3.21V81.29h-24.37v43.03
			c0,1.97-1.25,3.21-3.21,3.21h-3.01c-1.97,0-3.32-1.24-3.32-3.21V81.29z M341.79,95.85c0-1.97,1.35-3.32,3.32-3.32h3.01
			c1.97,0,3.21,1.35,3.21,3.32v28.47c0,1.97-1.24,3.21-3.21,3.21h-3.01c-1.97,0-3.32-1.24-3.32-3.21V95.85z"/>
		<path class="st0" d="M366.45,77.45c0-1.97,1.14-3.32,3.11-3.32h1.55c1.97,0,3.32,0.83,3.52,2.8l0.31,2.49
			c5.08-4.15,10.27-6.64,15.66-6.64c11.51,0,17.52,7.05,17.52,18.04v33.49c0,1.97-1.35,3.21-3.32,3.21h-3.01
			c-1.97,0-3.21-1.24-3.21-3.21V92.59c0-7.67-2.39-11.51-9.64-11.51c-4.67,0-8.71,2.49-12.96,6.01v37.22c0,1.97-1.35,3.21-3.32,3.21
			h-3.01c-1.97,0-3.21-1.24-3.21-3.21V77.45z"/>
		<path class="st0" d="M422.23,77.45c0-1.97,1.24-3.32,3.21-3.32h3.01c1.97,0,3.32,1.35,3.32,3.32v31.73
			c0,7.57,2.39,11.41,9.54,11.41c4.77,0,8.81-2.38,13.06-5.91V77.45c0-1.97,1.25-3.32,3.21-3.32h3.01c1.97,0,3.32,1.35,3.32,3.32
			v46.87c0,1.97-1.25,3.21-3.21,3.21h-1.45c-2.18,0-3.32-0.62-3.52-2.59l-0.42-2.7c-4.87,4.15-10.16,6.64-15.66,6.64
			c-11.51,0-17.42-7.05-17.42-18.04V77.45z"/>
		<path class="st0" d="M479.05,77.45c0-1.97,1.14-3.32,3.11-3.32h1.76c1.97,0,3.11,1.04,3.32,2.8l0.31,2.49
			c3.94-3.53,9.02-6.64,14.72-6.64c7.26,0,12.24,2.8,14.83,7.47c4.46-3.94,10.06-7.47,16.28-7.47c11.51,0,17.42,7.05,17.42,18.04
			v33.49c0,1.97-1.35,3.21-3.32,3.21h-3.01c-1.97,0-3.21-1.24-3.21-3.21V92.59c0-7.67-2.28-11.51-9.54-11.51
			c-4.46,0-8.71,2.7-12.44,6.01c0.31,1.24,0.41,2.59,0.41,3.94v33.28c0,1.97-1.25,3.21-3.21,3.21h-3.01c-1.97,0-3.32-1.24-3.32-3.21
			V92.59c0-7.67-2.39-11.51-9.54-11.51c-4.66,0-8.5,2.9-12.03,6.01v37.22c0,1.97-1.35,3.21-3.32,3.21h-3.01
			c-1.97,0-3.21-1.24-3.21-3.21V77.45z"/>
	</g>
	<g>
		<path class="st0" d="M222.99,145.62c0-0.34,0.23-0.57,0.56-0.57h0.55c0.34,0,0.56,0.23,0.56,0.57v10.33h5.05
			c0.34,0,0.55,0.21,0.55,0.55v0.34c0,0.34-0.21,0.55-0.55,0.55h-6.16c-0.34,0-0.56-0.21-0.56-0.55V145.62z"/>
		<path class="st0" d="M235.7,152.16h1.36v-0.64c0-1.36-0.48-2.05-1.91-2.05c-0.9,0-1.59,0.18-1.94,0.28
			c-0.34,0.09-0.56-0.04-0.65-0.37l-0.09-0.3c-0.09-0.35,0.09-0.58,0.41-0.69c0.46-0.12,1.29-0.34,2.28-0.34
			c2.38,0,3.53,1.36,3.53,3.27v5.51c0,0.34-0.18,0.55-0.51,0.55h-0.3c-0.34,0-0.51-0.12-0.56-0.46l-0.05-0.42
			c-0.69,0.69-1.56,1.11-2.6,1.11c-1.82,0-2.93-1.1-2.93-2.75C231.73,152.9,233.39,152.16,235.7,152.16z M234.91,156.2
			c0.78,0,1.57-0.37,2.15-0.94v-1.87h-1.24c-1.43,0-2.45,0.3-2.45,1.45C233.37,155.67,233.87,156.2,234.91,156.2z"/>
		<path class="st0" d="M246.86,160.39c0,0.34-0.23,0.55-0.57,0.55h-0.51c-0.34,0-0.55-0.21-0.55-0.55v-11.53
			c0-0.34,0.19-0.57,0.53-0.57h0.28c0.34,0,0.55,0.16,0.58,0.46l0.07,0.42c0.85-0.71,1.64-1.11,2.56-1.11
			c2.07,0,3.32,1.36,3.32,3.69v2.19c0,2.3-1.25,3.67-3.32,3.67c-0.86,0-1.61-0.37-2.4-0.99V160.39z M249.03,156.2
			c1.34,0,1.89-0.83,1.89-2.54v-1.62c0-1.73-0.55-2.56-1.89-2.56c-0.81,0-1.52,0.49-2.17,1.04v4.7
			C247.59,155.74,248.22,156.2,249.03,156.2z"/>
		<path class="st0" d="M254.8,145.13c0-0.34,0.23-0.57,0.57-0.57h0.51c0.34,0,0.55,0.23,0.55,0.57v10.44c0,0.42,0.12,0.55,0.23,0.64
			c0.19,0.11,0.26,0.3,0.19,0.57l-0.09,0.39c-0.07,0.25-0.21,0.46-0.64,0.39c-0.58-0.14-1.32-0.44-1.32-1.82V145.13z"/>
		<path class="st0" d="M262.47,152.16h1.36v-0.64c0-1.36-0.48-2.05-1.91-2.05c-0.9,0-1.59,0.18-1.94,0.28
			c-0.34,0.09-0.56-0.04-0.65-0.37l-0.09-0.3c-0.09-0.35,0.09-0.58,0.4-0.69c0.46-0.12,1.29-0.34,2.28-0.34
			c2.38,0,3.53,1.36,3.53,3.27v5.51c0,0.34-0.18,0.55-0.51,0.55h-0.3c-0.34,0-0.51-0.12-0.57-0.46l-0.05-0.42
			c-0.69,0.69-1.55,1.11-2.6,1.11c-1.82,0-2.93-1.1-2.93-2.75C258.49,152.9,260.15,152.16,262.47,152.16z M261.67,156.2
			c0.78,0,1.57-0.37,2.15-0.94v-1.87h-1.24c-1.43,0-2.45,0.3-2.45,1.45C260.14,155.67,260.63,156.2,261.67,156.2z"/>
		<path class="st0" d="M268.26,149.51l-0.92-0.07c-0.39-0.05-0.55-0.18-0.55-0.51v-0.16c0-0.34,0.21-0.48,0.55-0.48h0.92v-2.35
			c0-0.34,0.23-0.57,0.57-0.57h0.51c0.34,0,0.55,0.23,0.55,0.57v2.35h1.62c0.34,0,0.55,0.18,0.55,0.51v0.21
			c0,0.34-0.21,0.49-0.55,0.49h-1.62v5.19c0,1.09,0.57,1.5,1.32,1.5c0.3,0,0.55-0.04,0.72-0.05c0.34-0.07,0.55,0.04,0.62,0.35
			l0.07,0.39c0.05,0.32-0.11,0.57-0.44,0.64c-0.27,0.05-0.64,0.09-1.04,0.09c-1.78,0-2.88-1.01-2.88-2.72V149.51z"/>
		<path class="st0" d="M273.85,151.77c0-1.94,1.32-3.71,3.64-3.71c2.33,0,3.67,1.85,3.67,3.71v1.08c0,0.23-0.18,0.39-0.39,0.39h-5.3
			v0.67c0,1.01,0.44,2.3,2.19,2.3c0.9,0,1.64-0.18,2.14-0.32c0.35-0.09,0.62,0,0.71,0.35l0.09,0.32c0.07,0.3-0.07,0.57-0.41,0.67
			c-0.53,0.16-1.5,0.39-2.51,0.39c-2.6,0-3.83-1.82-3.83-3.71V151.77z M279.54,152.03v-0.35c0-1.04-0.53-2.21-2.03-2.21
			c-1.5,0-2.03,1.17-2.03,2.21v0.35H279.54z"/>
		<path class="st0" d="M283.62,149.51l-0.9-0.07c-0.37-0.04-0.57-0.18-0.57-0.51v-0.18c0-0.34,0.21-0.46,0.55-0.46h0.92v-1.18
			c0-1.71,1.13-2.77,2.9-2.77c0.42,0,0.78,0.05,1.04,0.11c0.37,0.07,0.48,0.32,0.42,0.65l-0.05,0.28c-0.05,0.3-0.27,0.49-0.64,0.42
			c-0.18-0.02-0.41-0.05-0.72-0.05c-0.76,0-1.32,0.35-1.32,1.47v1.08h1.45c0.34,0,0.56,0.18,0.56,0.51v0.21
			c0,0.34-0.23,0.49-0.56,0.49h-1.45v7.33c0,0.34-0.21,0.55-0.55,0.55h-0.51c-0.34,0-0.56-0.21-0.56-0.55V149.51z"/>
		<path class="st0" d="M288.38,152.09c0-2.45,1.41-4.03,3.8-4.03c2.4,0,3.82,1.57,3.82,4.03v1.5c0,2.47-1.43,4.03-3.82,4.03
			c-2.38,0-3.8-1.55-3.8-4.03V152.09z M292.18,156.2c1.61,0,2.15-1.04,2.15-2.75v-1.22c0-1.68-0.55-2.75-2.15-2.75
			c-1.59,0-2.15,1.08-2.15,2.75v1.22C290.02,155.16,290.59,156.2,292.18,156.2z"/>
		<path class="st0" d="M298.21,148.85c0-0.34,0.19-0.57,0.53-0.57h0.3c0.34,0,0.49,0.21,0.55,0.55l0.09,0.71
			c0.55-0.78,1.48-1.48,2.38-1.48c0.34,0,0.85,0.04,0.74,0.78c-0.07,0.72-0.41,0.65-0.81,0.65c-0.78,0-1.64,0.79-2.15,1.48v5.86
			c0,0.34-0.23,0.55-0.56,0.55h-0.51c-0.34,0-0.55-0.21-0.55-0.55V148.85z"/>
		<path class="st0" d="M304.52,148.85c0-0.34,0.19-0.57,0.53-0.57h0.3c0.34,0,0.53,0.18,0.57,0.48l0.05,0.42
			c0.67-0.6,1.54-1.13,2.51-1.13c1.24,0,2.08,0.48,2.52,1.27c0.76-0.67,1.71-1.27,2.77-1.27c1.96,0,2.97,1.2,2.97,3.07v5.7
			c0,0.34-0.23,0.55-0.56,0.55h-0.51c-0.34,0-0.55-0.21-0.55-0.55v-5.4c0-1.31-0.39-1.96-1.62-1.96c-0.76,0-1.48,0.46-2.12,1.02
			c0.05,0.21,0.07,0.44,0.07,0.67v5.67c0,0.34-0.21,0.55-0.55,0.55h-0.51c-0.34,0-0.56-0.21-0.56-0.55v-5.4
			c0-1.31-0.41-1.96-1.62-1.96c-0.8,0-1.45,0.49-2.05,1.02v6.34c0,0.34-0.23,0.55-0.56,0.55h-0.51c-0.34,0-0.55-0.21-0.55-0.55
			V148.85z"/>
		<path class="st0" d="M318.87,151.77c0-1.94,1.32-3.71,3.64-3.71c2.33,0,3.67,1.85,3.67,3.71v1.08c0,0.23-0.18,0.39-0.39,0.39h-5.3
			v0.67c0,1.01,0.44,2.3,2.19,2.3c0.9,0,1.64-0.18,2.14-0.32c0.35-0.09,0.62,0,0.71,0.35l0.09,0.32c0.07,0.3-0.07,0.57-0.41,0.67
			c-0.53,0.16-1.5,0.39-2.51,0.39c-2.6,0-3.83-1.82-3.83-3.71V151.77z M324.55,152.03v-0.35c0-1.04-0.53-2.21-2.03-2.21
			c-1.5,0-2.03,1.17-2.03,2.21v0.35H324.55z"/>
		<path class="st0" d="M334,160.39c0,0.34-0.23,0.55-0.56,0.55h-0.51c-0.34,0-0.55-0.21-0.55-0.55v-11.53
			c0-0.34,0.19-0.57,0.53-0.57h0.28c0.34,0,0.55,0.16,0.58,0.46l0.07,0.42c0.85-0.71,1.64-1.11,2.56-1.11
			c2.07,0,3.32,1.36,3.32,3.69v2.19c0,2.3-1.25,3.67-3.32,3.67c-0.87,0-1.61-0.37-2.4-0.99V160.39z M336.17,156.2
			c1.34,0,1.89-0.83,1.89-2.54v-1.62c0-1.73-0.55-2.56-1.89-2.56c-0.81,0-1.52,0.49-2.17,1.04v4.7
			C334.72,155.74,335.36,156.2,336.17,156.2z"/>
		<path class="st0" d="M345.37,152.16h1.36v-0.64c0-1.36-0.48-2.05-1.91-2.05c-0.9,0-1.59,0.18-1.94,0.28
			c-0.34,0.09-0.57-0.04-0.65-0.37l-0.09-0.3c-0.09-0.35,0.09-0.58,0.41-0.69c0.46-0.12,1.29-0.34,2.28-0.34
			c2.39,0,3.53,1.36,3.53,3.27v5.51c0,0.34-0.18,0.55-0.51,0.55h-0.3c-0.34,0-0.51-0.12-0.57-0.46l-0.05-0.42
			c-0.69,0.69-1.55,1.11-2.6,1.11c-1.82,0-2.93-1.1-2.93-2.75C341.39,152.9,343.05,152.16,345.37,152.16z M344.57,156.2
			c0.78,0,1.57-0.37,2.15-0.94v-1.87h-1.24c-1.43,0-2.45,0.3-2.45,1.45C343.04,155.67,343.53,156.2,344.57,156.2z"/>
		<path class="st0" d="M350.84,148.85c0-0.34,0.19-0.57,0.53-0.57h0.3c0.34,0,0.49,0.21,0.55,0.55l0.09,0.71
			c0.55-0.78,1.48-1.48,2.38-1.48c0.34,0,0.85,0.04,0.74,0.78c-0.07,0.72-0.41,0.65-0.81,0.65c-0.78,0-1.64,0.79-2.15,1.48v5.86
			c0,0.34-0.23,0.55-0.56,0.55h-0.51c-0.34,0-0.55-0.21-0.55-0.55V148.85z"/>
		<path class="st0" d="M357.46,149.51l-0.92-0.07c-0.39-0.05-0.55-0.18-0.55-0.51v-0.16c0-0.34,0.21-0.48,0.55-0.48h0.92v-2.35
			c0-0.34,0.23-0.57,0.56-0.57h0.51c0.34,0,0.55,0.23,0.55,0.57v2.35h1.62c0.34,0,0.55,0.18,0.55,0.51v0.21
			c0,0.34-0.21,0.49-0.55,0.49h-1.62v5.19c0,1.09,0.57,1.5,1.32,1.5c0.3,0,0.55-0.04,0.72-0.05c0.34-0.07,0.55,0.04,0.62,0.35
			l0.07,0.39c0.05,0.32-0.11,0.57-0.44,0.64c-0.27,0.05-0.64,0.09-1.04,0.09c-1.78,0-2.88-1.01-2.88-2.72V149.51z"/>
		<path class="st0" d="M363.06,151.77c0-1.94,1.32-3.71,3.64-3.71c2.33,0,3.67,1.85,3.67,3.71v1.08c0,0.23-0.18,0.39-0.39,0.39h-5.3
			v0.67c0,1.01,0.44,2.3,2.19,2.3c0.9,0,1.64-0.18,2.14-0.32c0.35-0.09,0.62,0,0.71,0.35l0.09,0.32c0.07,0.3-0.07,0.57-0.41,0.67
			c-0.53,0.16-1.5,0.39-2.51,0.39c-2.6,0-3.83-1.82-3.83-3.71V151.77z M368.74,152.03v-0.35c0-1.04-0.53-2.21-2.03-2.21
			c-1.5,0-2.03,1.17-2.03,2.21v0.35H368.74z"/>
		<path class="st0" d="M372.5,148.85c0-0.34,0.19-0.57,0.53-0.57h0.26c0.34,0,0.57,0.14,0.6,0.48l0.05,0.42
			c0.87-0.71,1.75-1.13,2.67-1.13c1.96,0,2.99,1.2,2.99,3.07v5.7c0,0.34-0.23,0.55-0.57,0.55h-0.51c-0.34,0-0.55-0.21-0.55-0.55
			v-5.4c0-1.31-0.41-1.96-1.64-1.96c-0.8,0-1.48,0.42-2.21,1.02v6.34c0,0.34-0.23,0.55-0.56,0.55h-0.51c-0.34,0-0.55-0.21-0.55-0.55
			V148.85z"/>
		<path class="st0" d="M385.51,152.16h1.36v-0.64c0-1.36-0.48-2.05-1.91-2.05c-0.9,0-1.59,0.18-1.94,0.28
			c-0.34,0.09-0.57-0.04-0.65-0.37l-0.09-0.3c-0.09-0.35,0.09-0.58,0.41-0.69c0.46-0.12,1.29-0.34,2.28-0.34
			c2.39,0,3.53,1.36,3.53,3.27v5.51c0,0.34-0.18,0.55-0.51,0.55h-0.3c-0.34,0-0.51-0.12-0.57-0.46l-0.05-0.42
			c-0.69,0.69-1.55,1.11-2.6,1.11c-1.82,0-2.93-1.1-2.93-2.75C381.54,152.9,383.2,152.16,385.51,152.16z M384.72,156.2
			c0.78,0,1.57-0.37,2.15-0.94v-1.87h-1.24c-1.43,0-2.45,0.3-2.45,1.45C383.18,155.67,383.68,156.2,384.72,156.2z"/>
		<path class="st0" d="M390.81,145.75c0-0.55,0.42-0.95,0.99-0.95c0.57,0,0.99,0.41,0.99,0.95c0,0.55-0.42,0.97-0.99,0.97
			C391.23,146.72,390.81,146.29,390.81,145.75z M390.98,148.85c0-0.34,0.21-0.57,0.55-0.57h0.51c0.34,0,0.56,0.23,0.56,0.57v7.98
			c0,0.34-0.23,0.55-0.56,0.55h-0.51c-0.34,0-0.55-0.21-0.55-0.55V148.85z"/>
		<path class="st0" d="M395.18,148.85c0-0.34,0.19-0.57,0.53-0.57h0.3c0.34,0,0.49,0.21,0.55,0.55l0.09,0.71
			c0.55-0.78,1.48-1.48,2.38-1.48c0.34,0,0.85,0.04,0.74,0.78c-0.07,0.72-0.41,0.65-0.81,0.65c-0.78,0-1.64,0.79-2.15,1.48v5.86
			c0,0.34-0.23,0.55-0.56,0.55h-0.51c-0.34,0-0.55-0.21-0.55-0.55V148.85z"/>
		<path class="st0" d="M401.13,151.77c0-1.94,1.32-3.71,3.64-3.71c2.33,0,3.67,1.85,3.67,3.71v1.08c0,0.23-0.18,0.39-0.39,0.39h-5.3
			v0.67c0,1.01,0.44,2.3,2.19,2.3c0.9,0,1.64-0.18,2.14-0.32c0.35-0.09,0.62,0,0.71,0.35l0.09,0.32c0.07,0.3-0.07,0.57-0.41,0.67
			c-0.53,0.16-1.5,0.39-2.51,0.39c-2.6,0-3.83-1.82-3.83-3.71V151.77z M406.82,152.03v-0.35c0-1.04-0.53-2.21-2.03-2.21
			c-1.5,0-2.03,1.17-2.03,2.21v0.35H406.82z"/>
		<path class="st0" d="M414.28,151.75c0-2.33,1.25-3.69,3.3-3.69c0.87,0,1.61,0.35,2.42,0.99v-3.92c0-0.34,0.21-0.57,0.55-0.57h0.51
			c0.34,0,0.56,0.23,0.56,0.57v11.71c0,0.34-0.18,0.55-0.51,0.55h-0.34c-0.34,0-0.53-0.09-0.56-0.42l-0.05-0.46
			c-0.86,0.72-1.64,1.11-2.58,1.11c-2.05,0-3.3-1.38-3.3-3.67V151.75z M417.83,156.2c0.79,0,1.52-0.48,2.17-0.99v-4.71
			c-0.67-0.55-1.38-1.02-2.17-1.02c-1.34,0-1.91,0.83-1.91,2.54v1.64C415.93,155.37,416.49,156.2,417.83,156.2z"/>
		<path class="st0" d="M423.85,151.77c0-1.94,1.32-3.71,3.64-3.71c2.33,0,3.67,1.85,3.67,3.71v1.08c0,0.23-0.18,0.39-0.39,0.39h-5.3
			v0.67c0,1.01,0.44,2.3,2.19,2.3c0.9,0,1.64-0.18,2.14-0.32c0.35-0.09,0.62,0,0.71,0.35l0.09,0.32c0.07,0.3-0.07,0.57-0.41,0.67
			c-0.53,0.16-1.5,0.39-2.51,0.39c-2.6,0-3.83-1.82-3.83-3.71V151.77z M429.54,152.03v-0.35c0-1.04-0.53-2.21-2.03-2.21
			c-1.5,0-2.03,1.17-2.03,2.21v0.35H429.54z"/>
		<path class="st0" d="M432.94,156.25c0.09-0.34,0.34-0.48,0.67-0.37c0.4,0.12,1.08,0.32,1.84,0.32c1.13,0,1.57-0.51,1.57-1.27
			c0-1.77-4.08-1.22-4.08-4.29c0-1.59,1.34-2.58,3.13-2.58c0.78,0,1.41,0.14,1.77,0.25c0.34,0.11,0.46,0.37,0.35,0.69l-0.07,0.28
			c-0.09,0.28-0.34,0.48-0.71,0.37c-0.35-0.09-0.78-0.18-1.31-0.18c-0.97,0-1.47,0.46-1.47,1.17c0,1.66,4.08,1.29,4.08,4.29
			c0,1.62-1.31,2.68-3.25,2.68c-0.95,0-1.77-0.21-2.24-0.35c-0.32-0.11-0.42-0.39-0.35-0.72L432.94,156.25z"/>
		<path class="st0" d="M444.49,151.77c0-1.94,1.32-3.71,3.64-3.71c2.33,0,3.67,1.85,3.67,3.71v1.08c0,0.23-0.18,0.39-0.39,0.39h-5.3
			v0.67c0,1.01,0.44,2.3,2.19,2.3c0.9,0,1.64-0.18,2.14-0.32c0.35-0.09,0.62,0,0.71,0.35l0.09,0.32c0.07,0.3-0.07,0.57-0.41,0.67
			c-0.53,0.16-1.5,0.39-2.51,0.39c-2.6,0-3.83-1.82-3.83-3.71V151.77z M450.17,152.03v-0.35c0-1.04-0.53-2.21-2.03-2.21
			c-1.5,0-2.03,1.17-2.03,2.21v0.35H450.17z"/>
		<path class="st0" d="M453.93,148.85c0-0.34,0.19-0.57,0.53-0.57h0.26c0.34,0,0.57,0.14,0.6,0.48l0.05,0.42
			c0.86-0.71,1.75-1.13,2.67-1.13c1.96,0,2.98,1.2,2.98,3.07v5.7c0,0.34-0.23,0.55-0.56,0.55h-0.51c-0.34,0-0.55-0.21-0.55-0.55
			v-5.4c0-1.31-0.41-1.96-1.64-1.96c-0.8,0-1.48,0.42-2.21,1.02v6.34c0,0.34-0.23,0.55-0.56,0.55h-0.51c-0.34,0-0.55-0.21-0.55-0.55
			V148.85z"/>
		<path class="st0" d="M463.84,149.51l-0.92-0.07c-0.39-0.05-0.55-0.18-0.55-0.51v-0.16c0-0.34,0.21-0.48,0.55-0.48h0.92v-2.35
			c0-0.34,0.23-0.57,0.56-0.57h0.51c0.34,0,0.55,0.23,0.55,0.57v2.35h1.62c0.34,0,0.55,0.18,0.55,0.51v0.21
			c0,0.34-0.21,0.49-0.55,0.49h-1.62v5.19c0,1.09,0.57,1.5,1.32,1.5c0.3,0,0.55-0.04,0.72-0.05c0.34-0.07,0.55,0.04,0.62,0.35
			l0.07,0.39c0.05,0.32-0.11,0.57-0.44,0.64c-0.27,0.05-0.64,0.09-1.04,0.09c-1.78,0-2.88-1.01-2.88-2.72V149.51z"/>
		<path class="st0" d="M469.79,148.85c0-0.34,0.19-0.57,0.53-0.57h0.3c0.34,0,0.49,0.21,0.55,0.55l0.09,0.71
			c0.55-0.78,1.48-1.48,2.38-1.48c0.34,0,0.85,0.04,0.74,0.78c-0.07,0.72-0.41,0.65-0.81,0.65c-0.78,0-1.64,0.79-2.15,1.48v5.86
			c0,0.34-0.23,0.55-0.56,0.55h-0.51c-0.34,0-0.55-0.21-0.55-0.55V148.85z"/>
		<path class="st0" d="M475.74,151.77c0-1.94,1.32-3.71,3.64-3.71c2.33,0,3.67,1.85,3.67,3.71v1.08c0,0.23-0.18,0.39-0.39,0.39h-5.3
			v0.67c0,1.01,0.44,2.3,2.19,2.3c0.9,0,1.64-0.18,2.14-0.32c0.35-0.09,0.62,0,0.71,0.35l0.09,0.32c0.07,0.3-0.07,0.57-0.41,0.67
			c-0.53,0.16-1.5,0.39-2.51,0.39c-2.6,0-3.83-1.82-3.83-3.71V151.77z M481.42,152.03v-0.35c0-1.04-0.53-2.21-2.03-2.21
			c-1.5,0-2.03,1.17-2.03,2.21v0.35H481.42z"/>
		<path class="st0" d="M486.81,160.39c0,0.34-0.23,0.55-0.56,0.55h-0.51c-0.34,0-0.55-0.21-0.55-0.55v-11.53
			c0-0.34,0.19-0.57,0.53-0.57h0.28c0.34,0,0.55,0.16,0.58,0.46l0.07,0.42c0.85-0.71,1.64-1.11,2.56-1.11
			c2.07,0,3.32,1.36,3.32,3.69v2.19c0,2.3-1.25,3.67-3.32,3.67c-0.87,0-1.61-0.37-2.4-0.99V160.39z M488.98,156.2
			c1.34,0,1.89-0.83,1.89-2.54v-1.62c0-1.73-0.55-2.56-1.89-2.56c-0.81,0-1.52,0.49-2.17,1.04v4.7
			C487.53,155.74,488.16,156.2,488.98,156.2z"/>
		<path class="st0" d="M494.75,148.85c0-0.34,0.19-0.57,0.53-0.57h0.3c0.34,0,0.49,0.21,0.55,0.55l0.09,0.71
			c0.55-0.78,1.48-1.48,2.38-1.48c0.34,0,0.85,0.04,0.74,0.78c-0.07,0.72-0.41,0.65-0.81,0.65c-0.78,0-1.64,0.79-2.15,1.48v5.86
			c0,0.34-0.23,0.55-0.56,0.55h-0.51c-0.34,0-0.55-0.21-0.55-0.55V148.85z"/>
		<path class="st0" d="M500.7,151.77c0-1.94,1.32-3.71,3.64-3.71c2.33,0,3.67,1.85,3.67,3.71v1.08c0,0.23-0.18,0.39-0.39,0.39h-5.3
			v0.67c0,1.01,0.44,2.3,2.19,2.3c0.9,0,1.64-0.18,2.14-0.32c0.35-0.09,0.62,0,0.71,0.35l0.09,0.32c0.07,0.3-0.07,0.57-0.41,0.67
			c-0.53,0.16-1.5,0.39-2.51,0.39c-2.6,0-3.83-1.82-3.83-3.71V151.77z M506.38,152.03v-0.35c0-1.04-0.53-2.21-2.03-2.21
			c-1.5,0-2.03,1.17-2.03,2.21v0.35H506.38z"/>
		<path class="st0" d="M510.14,148.85c0-0.34,0.19-0.57,0.53-0.57h0.26c0.34,0,0.57,0.14,0.6,0.48l0.05,0.42
			c0.86-0.71,1.75-1.13,2.67-1.13c1.96,0,2.98,1.2,2.98,3.07v5.7c0,0.34-0.23,0.55-0.56,0.55h-0.51c-0.34,0-0.55-0.21-0.55-0.55
			v-5.4c0-1.31-0.41-1.96-1.64-1.96c-0.8,0-1.48,0.42-2.21,1.02v6.34c0,0.34-0.23,0.55-0.56,0.55h-0.51c-0.34,0-0.55-0.21-0.55-0.55
			V148.85z"/>
		<path class="st0" d="M519.37,151.77c0-1.94,1.32-3.71,3.64-3.71c2.33,0,3.67,1.85,3.67,3.71v1.08c0,0.23-0.18,0.39-0.39,0.39H521
			v0.67c0,1.01,0.44,2.3,2.19,2.3c0.9,0,1.64-0.18,2.14-0.32c0.35-0.09,0.62,0,0.71,0.35l0.09,0.32c0.07,0.3-0.07,0.57-0.41,0.67
			c-0.53,0.16-1.5,0.39-2.51,0.39c-2.6,0-3.83-1.82-3.83-3.71V151.77z M525.06,152.03v-0.35c0-1.04-0.53-2.21-2.03-2.21
			c-1.5,0-2.03,1.17-2.03,2.21v0.35H525.06z"/>
		<path class="st0" d="M528.73,148.85c0-0.34,0.21-0.57,0.55-0.57h0.51c0.34,0,0.56,0.23,0.56,0.57v5.4c0,1.29,0.41,1.94,1.62,1.94
			c0.81,0,1.5-0.41,2.23-1.01v-6.34c0-0.34,0.21-0.57,0.55-0.57h0.51c0.34,0,0.57,0.23,0.57,0.57v7.98c0,0.34-0.21,0.55-0.55,0.55
			h-0.25c-0.37,0-0.57-0.11-0.6-0.44l-0.07-0.46c-0.83,0.71-1.73,1.13-2.67,1.13c-1.96,0-2.97-1.2-2.97-3.07V148.85z"/>
		<path class="st0" d="M538.4,148.85c0-0.34,0.19-0.57,0.53-0.57h0.3c0.34,0,0.49,0.21,0.55,0.55l0.09,0.71
			c0.55-0.78,1.48-1.48,2.38-1.48c0.34,0,0.85,0.04,0.74,0.78c-0.07,0.72-0.41,0.65-0.81,0.65c-0.78,0-1.64,0.79-2.15,1.48v5.86
			c0,0.34-0.23,0.55-0.56,0.55h-0.51c-0.34,0-0.55-0.21-0.55-0.55V148.85z"/>
		<path class="st0" d="M544.35,156.25c0.09-0.34,0.34-0.48,0.67-0.37c0.41,0.12,1.08,0.32,1.84,0.32c1.13,0,1.57-0.51,1.57-1.27
			c0-1.77-4.08-1.22-4.08-4.29c0-1.59,1.34-2.58,3.13-2.58c0.78,0,1.41,0.14,1.77,0.25c0.34,0.11,0.46,0.37,0.35,0.69l-0.07,0.28
			c-0.09,0.28-0.34,0.48-0.71,0.37c-0.35-0.09-0.78-0.18-1.31-0.18c-0.97,0-1.47,0.46-1.47,1.17c0,1.66,4.08,1.29,4.08,4.29
			c0,1.62-1.31,2.68-3.25,2.68c-0.95,0-1.77-0.21-2.24-0.35c-0.32-0.11-0.42-0.39-0.35-0.72L544.35,156.25z"/>
	</g>
	<g>
		<g>
			<g>
				<path class="st1" d="M144.73,81.29c8.61,0,15.61,7,15.61,15.61c0,8.61-7,15.61-15.61,15.61s-15.61-7-15.61-15.61
					C129.12,88.29,136.13,81.29,144.73,81.29 M144.73,74.59c-12.32,0-22.31,9.99-22.31,22.31c0,12.32,9.99,22.31,22.31,22.31
					s22.31-9.99,22.31-22.31C167.05,84.58,157.06,74.59,144.73,74.59L144.73,74.59z"/>
			</g>
		</g>
		<g>
			<path class="st1" d="M58.44,37.96c8.61,0,15.61,7,15.61,15.61s-7,15.61-15.61,15.61s-15.61-7-15.61-15.61
				S49.83,37.96,58.44,37.96 M58.44,31.26c-12.32,0-22.31,9.99-22.31,22.31c0,12.32,9.99,22.31,22.31,22.31s22.31-9.99,22.31-22.31
				C80.75,41.25,70.76,31.26,58.44,31.26L58.44,31.26z"/>
		</g>
		<g>
			<g>
				<path class="st1" d="M84.99,133.72c7.45,0,13.52,6.06,13.52,13.52c0,7.45-6.06,13.52-13.52,13.52
					c-7.45,0-13.52-6.07-13.52-13.52C71.47,139.78,77.54,133.72,84.99,133.72 M84.99,127.02c-11.17,0-20.22,9.05-20.22,20.22
					c0,11.17,9.05,20.22,20.22,20.22c11.17,0,20.22-9.05,20.22-20.22C105.21,136.07,96.16,127.02,84.99,127.02L84.99,127.02z"/>
			</g>
		</g>
		<g>
			<g>
				<path class="st1" d="M186.86,56.72c5.85,0,10.61,4.76,10.61,10.61s-4.76,10.61-10.61,10.61s-10.61-4.76-10.61-10.61
					S181.01,56.72,186.86,56.72 M186.86,50.02c-9.56,0-17.31,7.75-17.31,17.31s7.75,17.31,17.31,17.31
					c9.56,0,17.31-7.75,17.31-17.31S196.42,50.02,186.86,50.02L186.86,50.02z"/>
			</g>
		</g>
		<g>
			<g>
				<path class="st1" d="M131.57,24.59c4.02,0,7.29,3.27,7.29,7.29s-3.27,7.29-7.29,7.29c-4.02,0-7.29-3.27-7.29-7.29
					S127.55,24.59,131.57,24.59 M131.57,17.89c-7.73,0-13.99,6.26-13.99,13.99s6.26,13.99,13.99,13.99
					c7.73,0,13.99-6.26,13.99-13.99S139.3,17.89,131.57,17.89L131.57,17.89z"/>
			</g>
		</g>
		<g>
			<g>
				<path class="st1" d="M147.25,142.96c4.02,0,7.29,3.27,7.29,7.29s-3.27,7.29-7.29,7.29c-4.02,0-7.29-3.27-7.29-7.29
					S143.23,142.96,147.25,142.96 M147.25,136.27c-7.73,0-13.99,6.26-13.99,13.99s6.26,13.99,13.99,13.99
					c7.73,0,13.99-6.26,13.99-13.99S154.97,136.27,147.25,136.27L147.25,136.27z"/>
			</g>
		</g>
		<g>
			<path class="st1" d="M190.18,115.91c2.92,0,5.3,2.38,5.3,5.3c0,2.92-2.38,5.3-5.3,5.3s-5.3-2.38-5.3-5.3
				C184.88,118.29,187.26,115.91,190.18,115.91 M190.18,109.21c-6.63,0-12,5.37-12,12c0,6.63,5.37,12,12,12s12-5.37,12-12
				C202.18,114.58,196.81,109.21,190.18,109.21L190.18,109.21z"/>
		</g>
		<linearGradient id="SVGID_1_" gradientUnits="userSpaceOnUse" x1="127.526" y1="111.1547" x2="100.9216" y2="134.0577">
			<stop  offset="0" style="stop-color:#69ACDF;stop-opacity:0.5"/>
			<stop  offset="1" style="stop-color:#69ACDF"/>
		</linearGradient>
		<path class="st2" d="M102.4,136.95l27.63-23.28c-1.68-1.48-3.14-3.2-4.32-5.12l-27.63,23.28
			C99.79,133.28,101.25,135.01,102.4,136.95z"/>
		
			<linearGradient id="SVGID_00000076582569649386926760000010327378596864022423_" gradientUnits="userSpaceOnUse" x1="146.6304" y1="136.3309" x2="145.7822" y2="119.9055">
			<stop  offset="0" style="stop-color:#69ACDF;stop-opacity:0.5"/>
			<stop  offset="1" style="stop-color:#69ACDF"/>
		</linearGradient>
		<path style="fill:url(#SVGID_00000076582569649386926760000010327378596864022423_);" d="M147.25,136.27
			c0.93,0,1.83,0.1,2.71,0.27l-0.84-17.75c-1.42,0.28-2.88,0.43-4.38,0.43c-0.78,0-1.55-0.04-2.31-0.12l0.84,17.76
			C144.53,136.47,145.86,136.27,147.25,136.27z"/>
		
			<linearGradient id="SVGID_00000121988271746478763640000018390643920740313733_" gradientUnits="userSpaceOnUse" x1="164.3894" y1="107.5462" x2="179.4267" y2="115.3348">
			<stop  offset="0" style="stop-color:#69ACDF;stop-opacity:0.5"/>
			<stop  offset="1" style="stop-color:#69ACDF"/>
		</linearGradient>
		<path style="fill:url(#SVGID_00000121988271746478763640000018390643920740313733_);" d="M181.6,112.82l-15.84-8.47
			c-0.76,2.14-1.83,4.13-3.16,5.91l15.83,8.47C178.92,116.46,180.04,114.42,181.6,112.82z"/>
		
			<linearGradient id="SVGID_00000129916179896758738200000008123460901496577977_" gradientUnits="userSpaceOnUse" x1="172.8688" y1="77.3128" x2="163.0496" y2="84.0988">
			<stop  offset="0" style="stop-color:#69ACDF;stop-opacity:0.5"/>
			<stop  offset="1" style="stop-color:#69ACDF"/>
		</linearGradient>
		<path style="fill:url(#SVGID_00000129916179896758738200000008123460901496577977_);" d="M171.09,74.44l-10.18,7.1
			c1.54,1.62,2.84,3.47,3.84,5.49l10.23-7.14C173.35,78.36,172.02,76.51,171.09,74.44z"/>
		
			<linearGradient id="SVGID_00000161609817422156394200000006521216796527538595_" gradientUnits="userSpaceOnUse" x1="78.6149" y1="63.7116" x2="124.7293" y2="86.8459">
			<stop  offset="0" style="stop-color:#69ACDF;stop-opacity:0.5"/>
			<stop  offset="1" style="stop-color:#69ACDF"/>
		</linearGradient>
		<path style="fill:url(#SVGID_00000161609817422156394200000006521216796527538595_);" d="M79.66,60.48
			c-0.7,2.16-1.72,4.17-3.01,5.98L123.52,90c0.7-2.16,1.72-4.17,3.01-5.98L79.66,60.48z"/>
		
			<linearGradient id="SVGID_00000032642531887066863630000012764875195833194917_" gradientUnits="userSpaceOnUse" x1="140.0066" y1="74.7327" x2="134.7628" y2="46.5089">
			<stop  offset="0" style="stop-color:#69ACDF;stop-opacity:0.5"/>
			<stop  offset="1" style="stop-color:#69ACDF"/>
		</linearGradient>
		<path style="fill:url(#SVGID_00000032642531887066863630000012764875195833194917_);" d="M131.57,45.87c-0.2,0-0.4-0.02-0.59-0.03
			l6.09,30.1c2.06-0.75,4.27-1.21,6.57-1.32l-6.09-30.11C135.73,45.37,133.71,45.87,131.57,45.87z"/>
	</g>
	<g>
		<g>
			<path class="st1" d="M346.55,72.05c2.92,0,5.3,2.38,5.3,5.3c0,2.92-2.38,5.3-5.3,5.3s-5.3-2.38-5.3-5.3
				C341.25,74.43,343.63,72.05,346.55,72.05 M346.55,65.36c-6.63,0-12,5.37-12,12s5.37,12,12,12s12-5.37,12-12
				S353.18,65.36,346.55,65.36L346.55,65.36z"/>
		</g>
	</g>
</g>
</svg>
